<svg xmlns="http://www.w3.org/2000/svg" viewBox="0 0 200 320" fill="currentColor" preserveAspectRatio="xMidYMid meet">
  <path d="m36.72,183.65c-3.58,11.57-5.33,24-5.33,36.55,0,49.14,27.48,96.88,86.61,96.88,29.52,0,50.88-10.44,67.76-29.62,1.24-1.41,1.06-3.59-.33-4.83l-2.43-2.16c-1.4-1.24-3.52-1.1-4.79.28-17.62,19.19-35.96,26.34-59.65,26.34-51.91,0-76.62-42.75-76.62-86.89,0-10.4,1.31-20.69,3.97-30.37.5-1.8,2.26-2.49,3.93-1.63.55.29,1.11.57,1.67.84,1.68.82,2.65,2.87,2.2,4.69-2.13,8.45-3.17,17.33-3.17,26.2,0,40.25,22.21,80.23,68.57,80.23,21,0,36.9-5.6,53.33-24.35,1.23-1.41,1.09-3.62-.28-4.89l-3.09-2.88c-1.37-1.28-3.4-1.1-4.6.34-13.47,16.27-27.18,21.78-45.91,21.78-39.7,0-57.46-35.26-57.46-70.23,0-7.66.85-15.33,2.6-22.65.44-1.82,2.31-2.86,4.13-2.42,6.89,1.66,14.36,2.54,22.41,2.54,29.17,0,50.37-10.2,67.15-28.95,1.25-1.39,3.3-1.49,4.55-.1.89.99,1.75,2.01,2.6,3.07,1.16,1.46,3.17,1.69,4.57.44l3-2.69c1.39-1.25,1.59-3.46.39-4.9-15.24-18.24-31.94-24.57-53.95-24.57s-38.69,9.06-49.83,22.84c-1.18,1.46-3.43,2.04-5.06,1.1-.44-.25-.87-.51-1.3-.77-1.59-.98-1.93-3.1-.75-4.56,12.53-15.48,31.18-25.55,56.38-25.55,27.68,0,42.86,7.4,60.22,26.61,1.25,1.39,3.38,1.53,4.78.29l2.43-2.16c1.4-1.24,1.62-3.46.43-4.91-15.18-18.43-36.83-29.83-67.85-29.83-28.73,0-49.98,11.28-64.25,28.57-1.19,1.44-3.14,1.55-4.32.1-10.95-13.45-16.1-32.36-16.1-51.19,0-34.98,17.77-70.23,57.46-70.23,19.6,0,34.78,7.63,45.98,21.73,1.16,1.47,3.17,1.69,4.57.44l3-2.69c1.39-1.25,1.59-3.46.39-4.9-15.24-18.24-31.94-24.57-53.95-24.57-46.92,0-68.01,40.25-68.01,80.23,0,21.68,6.45,43.28,19.64,58.59,7.93,9.21,18.3,16.15,31.17,19.46,5.47,1.41,11.39,2.17,17.77,2.17,20.26,0,35.78-5.21,51.59-22.42,1.27-1.38,3.62-1.87,5.24-.94.29.16.57.33.86.5,1.61.96,1.85,2.98.57,4.34-17.37,18.52-35.49,25.45-58.81,25.45-7.01,0-13.52-.79-19.54-2.24-13.01-3.15-23.73-9.45-32.24-17.89-16.72-16.6-24.85-41.45-24.85-66.76C14.17,55.81,38.32,13.06,90.24,13.06c27.68,0,42.86,7.4,60.22,26.61,1.25,1.39,3.38,1.53,4.78.29l2.43-2.16c1.4-1.24,1.62-3.46.43-4.91C142.9,14.46,121.25,3.07,90.24,3.07,31.11,3.07,3.62,50.82,3.62,100.51c0,29.93,10.2,59.34,31.54,77.76,1.42,1.22,2.11,3.59,1.56,5.38Zm43.65-14.05c-1.84-.32-2.37-1.87-1.11-3.25,9.29-10.17,22.27-16.65,39.3-16.65,4.34,0,8.47.38,12.38,1.12,1.84.35,2.3,1.86.99,3.19-11.99,12.18-24.61,16.48-41.13,16.48-3.66,0-7.13-.3-10.43-.87Z"/>
</svg>
