<svg xmlns="http://www.w3.org/2000/svg" viewBox="0 0 214 334" fill="currentColor" preserveAspectRatio="xMidYMid meet" aria-label="CardConduit logo">
  <path d="m186.75-.07H27.25C13.09-.07,1.56,11.45,1.56,25.62v282.77c0,14.17,11.52,25.69,25.69,25.69h159.49c14.17,0,25.69-11.52,25.69-25.69V25.62C212.44,11.45,200.91-.07,186.75-.07Zm21.57,308.46c0,11.9-9.68,21.57-21.57,21.57H27.25c-11.9,0-21.57-9.68-21.57-21.57V25.62C5.68,13.72,15.36,4.04,27.25,4.04h159.49c11.9,0,21.57,9.68,21.57,21.57v282.77ZM186.75,7.7H27.25c-9.88,0-17.91,8.04-17.91,17.91v282.77c0,9.88,8.04,17.91,17.91,17.91h159.49c9.88,0,17.91-8.04,17.91-17.91V25.62c0-9.88-8.04-17.91-17.91-17.91Zm0,316.31H27.25c-8.62,0-15.63-7.01-15.63-15.63v-68.43c0-.76.38-1.85.85-2.45l9.04-11.35,26.14-32.83c.47-.59,1.38-.75,2.09-.48.95.37,1.97.57,3.05.57.96,0,1.89-.16,2.75-.46.72-.25,1.62-.06,2.08.54,6.12,7.98,13.18,14.33,21.03,18.89,8.94,5.2,18.48,7.84,28.35,7.84s19.4-2.64,28.35-7.84c7.38-4.29,14.08-10.17,19.94-17.5.47-.59,1.39-.78,2.11-.54.84.28,1.74.43,2.67.43,1.09,0,2.13-.21,3.09-.59.71-.28,1.61-.12,2.08.47l27.56,34.62,8.72,10.96c.47.59.85,1.69.85,2.45v65.68c0,8.62-7.01,15.63-15.63,15.63ZM49.7,181.25c1.53,2.82,3.18,5.54,4.96,8.15.43.63.23,1.41-.51,1.58-.44.1-.89.15-1.36.15-3.4,0-6.18-2.77-6.18-6.18,0-1.51.54-2.89,1.45-3.97.49-.58,1.28-.4,1.64.27Zm-11.09-55.42c0-24.31,6.93-47.23,19.51-64.53,6.23-8.57,13.52-15.32,21.68-20.06,8.59-5,17.74-7.53,27.2-7.53s18.61,2.53,27.2,7.53c8.15,4.74,15.45,11.49,21.68,20.06,12.58,17.3,19.51,40.22,19.51,64.53s-6.93,47.23-19.51,64.53c-6.23,8.57-13.52,15.32-21.68,20.06-8.59,5-17.74,7.53-27.2,7.53s-18.61-2.53-27.2-7.53c-8.15-4.74-15.45-11.49-21.68-20.06-12.58-17.3-19.51-40.22-19.51-64.53Zm-9.82,23.55l-6.83,4.01c-.65.38-1.18.08-1.18-.68v-19.33c0-.76.58-1.58,1.29-1.83l12.97-4.6c.71-.25,1.3.16,1.31.91.05,3,.2,5.98.45,8.93.06.76-.49,1.44-1.21,1.68-3.41,1.09-5.89,4.29-5.89,8.06,0,.37.02.73.07,1.09.08.6-.32,1.38-.97,1.76Zm17.17-71.32c-.6,1.36-1.17,2.74-1.71,4.13-.27.71-1.07,1.08-1.78.82l-20.41-7.27c-.71-.25-1.29-1.08-1.29-1.83v-19.38c0-.76.53-1.06,1.18-.68l20.49,12.06c.65.38.93,1.26.75,2-.16.64-.24,1.31-.24,2,0,2.35.96,4.48,2.51,6.01.54.53.79,1.44.49,2.14Zm5.46-14.32c.35,0,.7.03,1.03.09.56.1.67.77.26,1.42-1.65,2.64-3.19,5.38-4.6,8.22-.34.68-1.09.85-1.56.25-.82-1.05-1.31-2.37-1.31-3.8,0-3.4,2.77-6.18,6.18-6.18Zm-8.88,23.19c-.83,2.47-1.58,4.98-2.25,7.53-.19.73-.49,1.32-.66,1.31-.11,0-.22,0-.33,0-3.64,0-6.75,2.31-7.94,5.54-.26.71-.98,1.32-1.74,1.32h-7.47c-.76,0-1.37-.61-1.37-1.37v-22.16c0-.76.58-1.17,1.29-.91l19.63,6.99c.71.25,1.09,1.04.85,1.76Zm-21.76,41.29v-21.94c0-.76.61-1.37,1.37-1.37h7.35c.76,0,1.41.62,1.59,1.35.62,2.51,2.36,4.57,4.66,5.64.69.32,1.22,1.08,1.15,1.84-.28,2.96-.46,5.94-.53,8.96-.02.76-.6,1.58-1.32,1.83l-12.98,4.61c-.71.25-1.29-.16-1.29-.91Zm18.53-30.17s.04,0,.06,0c.03,0-.08.6-.24,1.34-.66,3.06-1.21,6.16-1.64,9.31-.1.75-.77,1.17-1.42.77-1.76-1.09-2.94-3.04-2.94-5.25,0-3.4,2.77-6.18,6.18-6.18Zm-1.97,43.75c.4,3.2.93,6.37,1.57,9.48.15.74.06,1.38-.23,1.41-.17.01-.34.02-.52.02-3.4,0-6.18-2.77-6.18-6.18,0-2.59,1.6-4.81,3.86-5.73.7-.28,1.39.24,1.48.99Zm34.22-102.31c1.1,0,2.14.29,3.04.8.66.37.59,1.14-.03,1.57-2.56,1.76-5.03,3.72-7.4,5.87-.56.51-1.32.4-1.54-.33-.16-.55-.25-1.13-.25-1.74,0-3.4,2.77-6.18,6.18-6.18Zm40.2-7.86c-1.57-.14-3.16-.21-4.75-.21s-3.17.07-4.75.21c-.76.07-1.29-.48-1.03-1.19.88-2.33,3.14-3.99,5.77-3.99s4.89,1.66,5.77,3.99c.27.71-.27,1.26-1.03,1.19Zm35.71,16.67c-2.35-2.19-4.8-4.18-7.35-5.97-.62-.44-.68-1.21-.02-1.58.9-.51,1.94-.8,3.04-.8,3.4,0,6.18,2.77,6.18,6.18,0,.65-.1,1.28-.29,1.88-.23.72-1,.82-1.56.31Zm24.6,17.97l19.98-11.74c.65-.38,1.18-.08,1.18.68v19.38c0,.76-.58,1.58-1.29,1.83l-20.18,7.18c-.71.25-1.5-.12-1.77-.82-.56-1.46-1.14-2.89-1.76-4.31-.3-.7-.03-1.59.53-2.1,1.69-1.55,2.75-3.77,2.75-6.24,0-.64-.07-1.26-.21-1.85-.17-.74.12-1.62.77-2Zm5.13,70.64c.23-2.69.38-5.41.44-8.15.02-.76.6-1.17,1.32-.91l12.98,4.61c.71.25,1.29,1.07,1.29,1.83v19.38c0,.76-.53,1.06-1.18.68l-7.66-4.49c-.65-.38-.98-1.27-.87-2,.07-.44.11-.88.11-1.34,0-3.53-2.17-6.56-5.25-7.83-.7-.29-1.25-1.03-1.18-1.78Zm.46-13.32c-.05-3.17-.22-6.31-.51-9.42-.07-.75.47-1.52,1.15-1.85,2.21-1.04,3.9-3.01,4.56-5.4.2-.73.87-1.35,1.63-1.35h7.37c.76,0,1.37.62,1.37,1.37v22.17c0,.76-.58,1.17-1.29.91l-12.97-4.61c-.71-.25-1.3-1.07-1.31-1.83Zm14.2-20.3h-7.43c-.76,0-1.46-.61-1.7-1.33-1.13-3.34-4.3-5.76-8.02-5.76-.09,0-.18,0-.27,0-.15,0-.41-.58-.6-1.32-.64-2.5-1.36-4.96-2.16-7.38-.24-.72.14-1.51.85-1.76l19.41-6.91c.71-.25,1.29.15,1.29.91v22.16c0,.76-.61,1.37-1.37,1.37Zm-15.79-4.65c2.75.62,4.81,3.09,4.81,6.02,0,2.2-1.16,4.13-2.89,5.23-.64.4-1.31-.01-1.4-.76-.42-3.14-.95-6.25-1.59-9.3-.16-.74.33-1.36,1.07-1.19Zm2.03,42.45c1.93,1.05,3.24,3.09,3.24,5.43,0,3.4-2.77,6.18-6.18,6.18-.06,0-.12,0-.18,0-.1,0-.05-.61.11-1.35.64-3.09,1.16-6.23,1.57-9.41.1-.75.77-1.21,1.44-.85Zm-12-67.22c-1.41-2.87-2.95-5.64-4.61-8.31-.4-.64-.25-1.37.39-1.49.38-.07.76-.11,1.16-.11,3.4,0,6.18,2.77,6.18,6.18,0,1.55-.57,2.96-1.51,4.04-.5.57-1.27.37-1.6-.31Zm-2.68,108.97c.37-.66,1.15-.8,1.6-.2.77,1.03,1.22,2.3,1.22,3.68,0,3.4-2.77,6.18-6.18,6.18-.44,0-.88-.05-1.29-.14-.7-.15-1.19-.46-1.14-.53.03-.04.06-.08.09-.13,2.05-2.81,3.94-5.77,5.69-8.86Zm2.78-2.34c-.52-.55-.74-1.46-.4-2.14,1.56-3.11,2.97-6.34,4.24-9.66.27-.71.92-.85,1.45-.32l20.76,20.64c.54.53.97,1.58.97,2.34v33.41c0,.76-.38.89-.85.3l-25.35-31.84c-.47-.59-.42-1.51.01-2.14.94-1.36,1.49-3.01,1.49-4.78,0-2.25-.88-4.3-2.32-5.82Zm5.59-16.77c.8-2.44,1.52-4.93,2.16-7.46.19-.73.52-1.31.77-1.3.15,0,.29.01.44.01,2.43,0,4.63-1.03,6.18-2.68.52-.55,1.38-.76,2.04-.38l8.67,5.08c.65.38,1.18,1.31,1.18,2.07v26.33c0,.76-.44.94-.97.4l-19.92-19.81c-.54-.53-.77-1.55-.54-2.27Zm-2.97-99.76c-1.51-1.42-3.55-2.3-5.79-2.3-.79,0-1.55.11-2.27.31s-1.63-.03-2.06-.66c-.32-.46-.65-.92-.98-1.38-.18-.25-.36-.49-.54-.74-.3-.4-.12-1.16.42-1.7l33.92-33.92c.54-.54,1.27-.43,1.47.3.15.55.23,1.12.23,1.71v24.2c0,.76-.53,1.68-1.18,2.07l-21.11,12.41c-.65.38-1.55.2-2.1-.32Zm-14.48-8.37c-1.07-1.29-2.16-2.53-3.28-3.72-.52-.55-.59-1.5-.27-2.18.51-1.09.8-2.31.8-3.59,0-2.01-.71-3.86-1.88-5.32-.48-.59-.6-1.5-.18-2.13l12.42-18.4c.42-.63,1.38-1.14,2.14-1.14h22.65c1.17,0,2.28.31,3.23.86.66.38.67,1.24.14,1.78l-33.93,33.93c-.54.54-1.35.49-1.84-.09Zm-8.75-17.58c-.78-.24-1.61-.37-2.46-.37-1.91,0-3.67.64-5.09,1.71-.6.46-1.4.68-1.86.4-.28-.17-.56-.34-.84-.5-1.13-.65-2.26-1.27-3.41-1.84-.68-.34-1.04-1.18-.79-1.9l5.12-15.09c.24-.72,1.06-1.3,1.81-1.3h20.51c.76,0,1.03.51.6,1.14l-11.56,17.12c-.42.63-1.32.85-2.04.63Zm-18.26-2.67c-3.45-1.37-6.97-2.39-10.55-3.04-.75-.14-1.38-.85-1.55-1.59-.68-2.94-2.9-5.31-5.76-6.19-.72-.22-1.34-.91-1.34-1.67v-2.37c0-.76.61-1.37,1.37-1.37h23.41c.76,0,1.17.58.93,1.3l-4.8,14.15c-.24.72-1.01,1.06-1.71.78Zm-22.83-10.82c-2.86.88-5.08,3.24-5.76,6.19-.17.74-.81,1.45-1.55,1.59-3.55.65-7.05,1.66-10.48,3.02-.7.28-1.47-.06-1.71-.78l-4.8-14.12c-.24-.72.17-1.3.93-1.3h23.33c.76,0,1.37.61,1.37,1.37v2.37c0,.76-.61,1.44-1.34,1.67Zm-26.71-4.11l5.12,15.06c.24.72-.12,1.56-.79,1.9-1.17.58-2.33,1.21-3.47,1.88-.16.09-.32.19-.48.29-.27.16-.9-.16-1.5-.62-1.42-1.08-3.19-1.73-5.12-1.73-1.07,0-2.09.2-3.04.57-.71.27-1.58.09-2-.54l-11.48-16.96c-.42-.63-.15-1.14.6-1.14h20.35c.76,0,1.57.58,1.81,1.3Zm-25.53-.16l12.44,18.37c.42.63.33,1.57-.1,2.19-.96,1.37-1.52,3.03-1.52,4.83,0,1.22.26,2.38.73,3.43.31.69.22,1.64-.3,2.18-1.22,1.27-2.41,2.6-3.57,3.98-.49.58-1.31.62-1.84.09L24.26,21.47c-.54-.54-.49-1.36.19-1.69.85-.41,1.8-.64,2.8-.64h22.88c.76,0,1.72.51,2.14,1.14Zm-29.55,2.89l33.95,34c.54.54.66,1.38.28,1.88-.23.3-.45.61-.68.92-.26.36-.52.72-.77,1.08-.42.6-1.32.84-2.05.66-.65-.16-1.33-.25-2.03-.25-2.19,0-4.18.83-5.68,2.2-.56.51-1.47.69-2.12.3l-21.66-12.75c-.65-.38-1.18-1.31-1.18-2.07v-23.52c0-.77.13-1.51.38-2.19s1.03-.8,1.57-.26Zm-1.89,133.4c.03.06.59-.21,1.24-.59l7.6-4.46c.65-.38,1.49-.16,1.97.43,1.55,1.87,3.89,3.06,6.5,3.06.26,0,.52-.01.77-.04.43-.04.91.49,1.09,1.23.57,2.26,1.2,4.48,1.9,6.67.23.72-.01,1.74-.55,2.27l-19.62,19.54c-.54.53-.97.35-.97-.4v-26.43c0-.76.03-1.33.06-1.27Zm.91,31.33l20.45-20.36c.54-.53,1.18-.39,1.44.32,1.13,3.05,2.39,6.02,3.76,8.9.33.68.09,1.58-.46,2.1-1.61,1.54-2.61,3.71-2.61,6.1,0,1.79.56,3.45,1.51,4.82.43.62.49,1.54.02,2.13l-24.23,30.44c-.47.59-.85.46-.85-.3v-31.82c0-.76.44-1.81.97-2.34Zm179.77,48.69l-5.15-6.47c-.47-.59-.85-1.69-.85-2.45v-37c0-.76.03-1.4.06-1.43s.03-.09,0-.12-.06-.67-.06-1.43V25.62c0-4.83-3.93-8.77-8.77-8.77H27.25c-4.83,0-8.77,3.93-8.77,8.77v199.13c0,.76.03,1.37.07,1.37s-.31.48-.79,1.07l-5.29,6.64c-.47.59-.85.46-.85-.3V25.62c0-8.62,7.01-15.63,15.63-15.63h159.49c8.62,0,15.63,7.01,15.63,15.63v210.67c0,.76-.38.89-.85.3Zm-119.73-29.59c7.98,4.64,16.46,6.99,25.21,6.99s17.23-2.35,25.21-6.99c7.67-4.46,14.56-10.84,20.47-18.96,12.09-16.63,18.75-38.72,18.75-62.2s-6.66-45.57-18.75-62.2c-5.91-8.12-12.79-14.5-20.47-18.96-7.98-4.64-16.46-6.99-25.21-6.99s-17.23,2.35-25.21,6.99c-7.67,4.46-14.56,10.84-20.47,18.96-12.09,16.63-18.75,38.72-18.75,62.2s6.66,45.57,18.75,62.2c5.91,8.12,12.79,14.5,20.47,18.96Zm25.21-167.04c34.26,0,62.14,38.52,62.14,85.87s-27.88,85.87-62.14,85.87-62.14-38.52-62.14-85.87,27.88-85.87,62.14-85.87Zm-65.82,226.2c.68.78,1.17,1.72,1.45,2.83.28,1.11.42,2.3.42,3.57v4.57c0,.76-.61,1.37-1.37,1.37h-3.69c-.76,0-1.37-.61-1.37-1.37v-4.57c0-.85-.19-1.56-.57-2.12-.38-.57-1.04-.85-1.98-.85s-1.62.28-2.02.85c-.4.57-.6,1.27-.6,2.12v33.11c0,.94.2,1.69.6,2.23.4.54,1.07.81,2.02.81s1.6-.27,1.98-.81c.38-.54.57-1.28.57-2.23v-5.28c0-.76.61-1.37,1.37-1.37h3.69c.76,0,1.37.61,1.37,1.37v5.35c0,1.27-.14,2.45-.42,3.54-.28,1.09-.77,2.02-1.45,2.79-.68.78-1.6,1.39-2.76,1.84-1.16.45-2.61.67-4.35.67s-3.28-.22-4.46-.67c-1.18-.45-2.12-1.06-2.83-1.84-.71-.78-1.2-1.71-1.49-2.79-.28-1.08-.42-2.26-.42-3.54v-33.18c0-1.27.14-2.46.42-3.57.28-1.11.78-2.05,1.49-2.83.71-.78,1.65-1.39,2.83-1.84,1.18-.45,2.66-.67,4.46-.67s3.19.22,4.35.67c1.16.45,2.08,1.06,2.76,1.84Zm25.75.04c-.68-.8-1.62-1.43-2.79-1.88-1.18-.45-2.67-.67-4.46-.67s-3.28.22-4.46.67c-1.18.45-2.12,1.07-2.83,1.88-.71.8-1.2,1.75-1.49,2.83-.28,1.09-.42,2.26-.42,3.54v33.18c0,1.27.14,2.45.42,3.54.28,1.09.78,2.02,1.49,2.79.71.78,1.65,1.39,2.83,1.84,1.18.45,2.66.67,4.46.67s3.28-.22,4.46-.67c1.18-.45,2.11-1.06,2.79-1.84.68-.78,1.17-1.71,1.45-2.79.28-1.08.42-2.26.42-3.54v-33.18c0-1.27-.14-2.45-.42-3.54-.28-1.08-.77-2.03-1.45-2.83Zm-4.7,39.48c0,.94-.19,1.69-.57,2.23-.38.54-1.04.81-1.98.81s-1.62-.27-2.02-.81c-.4-.54-.6-1.28-.6-2.23v-33.11c0-.85.2-1.56.6-2.12.4-.57,1.07-.85,2.02-.85s1.6.28,1.98.85c.38.57.57,1.27.57,2.12v33.11Zm29.08-25.61v-14.33c0-.76.61-1.37,1.37-1.37h3.2c.76,0,1.37.61,1.37,1.37v46.78c0,.76-.61,1.37-1.37,1.37h-3.48c-.76,0-1.52-.6-1.7-1.33l-7.7-31.51c-.18-.74-.29-.72-.24.04.15,2.5.26,5.09.34,7.76.09,3.16.14,6.3.14,9.41v14.26c0,.76-.61,1.37-1.37,1.37h-3.2c-.76,0-1.37-.61-1.37-1.37v-46.78c0-.76.61-1.37,1.37-1.37h3.55c.76,0,1.52.6,1.69,1.33l7.63,31.57c.18.74.27.72.22-.03-.18-2.55-.3-5.18-.36-7.9-.07-3.21-.11-6.3-.11-9.27Zm29.08-15.1c-1.13-.4-2.57-.6-4.32-.6h-8.25c-.76,0-1.37.61-1.37,1.37v46.78c0,.76.61,1.37,1.37,1.37h8.39c1.74,0,3.17-.19,4.28-.57,1.11-.38,1.98-.94,2.62-1.7.64-.75,1.08-1.67,1.34-2.76.26-1.08.39-2.31.39-3.68v-32.12c0-1.32-.13-2.52-.39-3.61-.26-1.08-.72-2-1.38-2.76-.66-.75-1.56-1.33-2.69-1.73Zm-2.62,42.1c-.33.4-.94.6-1.84.6h-1.53c-.76,0-1.37-.61-1.37-1.37v-34.26c0-.76.61-1.37,1.37-1.37h1.46c.9,0,1.52.2,1.88.6.35.4.53,1.03.53,1.87v32.12c0,.8-.17,1.4-.5,1.8Zm27.31-1.31v-40.02c0-.76.61-1.37,1.37-1.37h3.84c.76,0,1.37.61,1.37,1.37v40.09c0,1.23-.15,2.38-.46,3.47-.31,1.09-.81,2.02-1.52,2.79-.71.78-1.65,1.39-2.83,1.84-1.18.45-2.62.67-4.32.67-1.79,0-3.28-.21-4.46-.64-1.18-.42-2.12-1.03-2.83-1.8-.71-.78-1.2-1.71-1.49-2.79-.28-1.08-.42-2.26-.42-3.54v-40.09c0-.76.61-1.37,1.37-1.37h3.84c.76,0,1.37.61,1.37,1.37v40.02c0,.94.2,1.67.6,2.19.4.52,1.07.78,2.02.78s1.6-.26,1.98-.78c.38-.52.57-1.25.57-2.19Zm15.42,6.76v-46.78c0-.76.61-1.37,1.37-1.37h3.84c.76,0,1.37.61,1.37,1.37v46.78c0,.76-.61,1.37-1.37,1.37h-3.84c-.76,0-1.37-.61-1.37-1.37Zm13.3-43.23v-3.55c0-.76.61-1.37,1.37-1.37h14.94c.76,0,1.37.61,1.37,1.37v3.55c0,.76-.61,1.37-1.37,1.37h-2.84c-.76,0-1.37.61-1.37,1.37v40.48c0,.76-.61,1.37-1.37,1.37h-3.84c-.76,0-1.37-.61-1.37-1.37v-40.48c0-.76-.61-1.37-1.37-1.37h-2.77c-.76,0-1.37-.61-1.37-1.37Zm-117.44-15.93c-1.23.63-2.61,1.12-4.14,1.46-1.53.35-3.2.52-5.01.52-2.58,0-4.88-.34-6.91-1.01-2.03-.67-3.75-1.58-5.15-2.72-1.4-1.14-2.47-2.47-3.21-3.99-.74-1.51-1.11-3.12-1.11-4.83s.37-3.31,1.11-4.83c.74-1.51,1.81-2.84,3.21-3.99,1.4-1.14,3.12-2.05,5.15-2.72,2.03-.67,4.33-1.01,6.91-1.01,1.75,0,3.37.16,4.86.49,1.49.33,2.84.79,4.05,1.38,1.21.59,2.28,1.29,3.2,2.09.55.47,1.04.97,1.48,1.5.48.58.26,1.38-.41,1.73l-2.87,1.45c-.68.34-1.46.21-1.84-.22-.22-.25-.47-.5-.74-.74-.57-.49-1.26-.92-2.05-1.28-.8-.36-1.69-.64-2.69-.86-1-.21-2.07-.32-3.21-.32-1.66,0-3.11.2-4.36.59-1.24.39-2.28.93-3.09,1.6-.82.67-1.44,1.45-1.85,2.34-.42.89-.62,1.82-.62,2.81s.21,1.89.62,2.78c.41.89,1.03,1.67,1.85,2.34.82.67,1.85,1.21,3.09,1.61,1.24.4,2.7.61,4.36.61,1.21,0,2.33-.12,3.36-.35,1.03-.24,1.95-.56,2.76-.96.81-.4,1.5-.87,2.09-1.41.28-.26.52-.52.74-.8.37-.47,1.12-.64,1.8-.3l2.9,1.46c.68.34.92,1.15.47,1.76s-.93,1.12-1.49,1.63c-.92.84-2,1.58-3.23,2.2Zm35.55-21.71c-1.73-.67-3.67-1.01-5.82-1.01s-4.09.34-5.82,1.01c-1.73.67-3.2,1.58-4.41,2.72-1.21,1.14-2.14,2.47-2.79,3.99-.65,1.51-.98,3.12-.98,4.83v10.4c0,.76.61,1.37,1.37,1.37h3.18c.76,0,1.37-.61,1.37-1.37v-1.16c0-.76.61-1.37,1.37-1.37h13.43c.76,0,1.37.61,1.37,1.37v1.16c0,.76.61,1.37,1.37,1.37h3.18c.76,0,1.37-.61,1.37-1.37v-10.4c0-1.7-.32-3.31-.98-4.83-.65-1.51-1.59-2.84-2.81-3.99-1.22-1.14-2.7-2.05-4.42-2.72Zm-13.89,13v-1.47c0-1.01.16-1.97.49-2.88.33-.91.82-1.71,1.48-2.41.37-.39.8-.74,1.28-1.03.64-.4,1.8-.85,2.54-1,.69-.14,1.46-.22,2.29-.22,1.39,0,2.6.2,3.62.61,1.02.4,1.86.95,2.52,1.65.66.69,1.16,1.5,1.48,2.41.33.91.49,1.87.49,2.88v1.47c0,.76-.61,1.37-1.37,1.37h-13.43c-.76,0-1.37-.61-1.37-1.37Zm61.48,8.68l-2.93-6.23c-.32-.69-.19-1.4.27-1.65.27-.15.54-.32.81-.5.55-.38,1.04-.86,1.48-1.43s.79-1.25,1.06-2.03c.27-.78.4-1.69.4-2.72,0-1.57-.28-2.85-.84-3.85-.56-1-1.24-1.78-2.05-2.35-.81-.57-1.65-.97-2.54-1.19-.89-.22-1.64-.34-2.27-.34h-19.79c-.76,0-1.37.61-1.37,1.37v20.8c0,.76.61,1.37,1.37,1.37h3.18c.76,0,1.37-.61,1.37-1.37v-5.29c0-.76.61-1.37,1.37-1.37h9.6c.76,0,1.63.56,1.95,1.24l2.6,5.55c.32.69,1.2,1.24,1.95,1.24h3.58c.76,0,1.11-.56.79-1.24Zm-7.49-11.88h-12.99c-.76,0-1.37-.61-1.37-1.37v-2.6c0-.76.61-1.37,1.37-1.37h12.99c.18,0,.42.03.72.1.3.07.6.2.89.39.29.19.54.46.74.81.2.35.3.8.3,1.36s-.11.98-.34,1.33c-.22.35-.49.62-.79.82-.3.2-.6.34-.89.42-.29.08-.5.12-.64.12Zm50.17,5.92c.66-1.43.99-2.96.99-4.57s-.33-3.14-.99-4.57c-.66-1.43-1.63-2.69-2.89-3.75-1.27-1.06-2.82-1.91-4.66-2.52-1.84-.62-3.95-.93-6.32-.93h-14.91c-.76,0-1.37.61-1.37,1.37v20.8c0,.76.61,1.37,1.37,1.37h14.91c2.38,0,4.48-.31,6.32-.93,1.84-.62,3.39-1.46,4.66-2.52,1.27-1.06,2.23-2.32,2.89-3.75Zm-22.86,2.29c-.76,0-1.37-.61-1.37-1.37v-10.98c0-.76.61-1.37,1.37-1.37h8.85c1.5,0,2.8.18,3.9.54,1.1.36,2.01.85,2.74,1.46.73.62,1.27,1.35,1.61,2.19.35.84.52,1.73.52,2.67s-.17,1.83-.52,2.67c-.35.84-.89,1.57-1.61,2.19-.73.62-1.64,1.1-2.74,1.46-1.1.36-2.4.54-3.9.54h-8.85Zm-79.66-114.86c-1.45,4.68-2.16,9.72-2.16,14.8,0,19.9,11.13,39.23,35.07,39.23,11.95,0,20.6-4.23,27.44-12,.5-.57.43-1.45-.14-1.96l-.98-.87c-.57-.5-1.43-.45-1.94.11-7.14,7.77-14.56,10.67-24.15,10.67-21.02,0-31.03-17.31-31.03-35.19,0-4.21.53-8.38,1.61-12.3.2-.73.92-1.01,1.59-.66.22.12.45.23.68.34.68.33,1.07,1.16.89,1.9-.86,3.42-1.28,7.02-1.28,10.61,0,16.3,8.99,32.49,27.77,32.49,8.5,0,14.94-2.27,21.59-9.86.5-.57.44-1.46-.12-1.98l-1.25-1.17c-.55-.52-1.38-.45-1.86.14-5.45,6.59-11.01,8.82-18.59,8.82-16.08,0-23.27-14.28-23.27-28.44,0-3.1.35-6.21,1.05-9.17.18-.74.94-1.16,1.67-.98,2.79.67,5.81,1.03,9.08,1.03,11.81,0,20.4-4.13,27.19-11.72.51-.56,1.34-.61,1.84-.04.36.4.71.81,1.05,1.24.47.59,1.29.68,1.85.18l1.22-1.09c.56-.51.65-1.4.16-1.98-6.17-7.38-12.93-9.95-21.85-9.95s-15.67,3.67-20.18,9.25c-.48.59-1.39.82-2.05.45-.18-.1-.35-.21-.53-.31-.65-.4-.78-1.26-.3-1.85,5.07-6.27,12.63-10.35,22.83-10.35,11.21,0,17.36,3,24.38,10.78.51.56,1.37.62,1.94.12l.98-.87c.57-.5.65-1.4.17-1.99-6.15-7.46-14.92-12.08-27.48-12.08-11.63,0-20.24,4.57-26.02,11.57-.48.58-1.27.63-1.75.04-4.43-5.45-6.52-13.1-6.52-20.73,0-14.16,7.19-28.44,23.27-28.44,7.94,0,14.08,3.09,18.62,8.8.47.59,1.28.68,1.85.18l1.22-1.09c.56-.51.65-1.4.16-1.98-6.17-7.38-12.93-9.95-21.85-9.95-19,0-27.54,16.3-27.54,32.49,0,8.78,2.61,17.52,7.95,23.73,3.21,3.73,7.41,6.54,12.62,7.88,2.21.57,4.61.88,7.19.88,8.2,0,14.49-2.11,20.89-9.08.51-.56,1.47-.76,2.12-.38.12.07.23.13.35.2.65.39.75,1.2.23,1.76-7.03,7.5-14.37,10.31-23.82,10.31-2.84,0-5.47-.32-7.91-.91-5.27-1.27-9.61-3.83-13.05-7.24-6.77-6.72-10.06-16.78-10.06-27.03,0-18.1,9.78-35.41,30.8-35.41,11.21,0,17.36,3,24.38,10.78.51.56,1.37.62,1.94.12l.98-.87c.57-.5.65-1.4.17-1.99-6.15-7.46-14.92-12.08-27.48-12.08-23.94,0-35.07,19.34-35.07,39.46,0,12.12,4.13,24.03,12.77,31.49.57.5.86,1.45.63,2.18Zm17.67-5.69c-.75-.13-.96-.76-.45-1.32,3.76-4.12,9.02-6.74,15.91-6.74,1.76,0,3.43.15,5.01.45.74.14.93.75.4,1.29-4.85,4.93-9.96,6.67-16.65,6.67-1.48,0-2.89-.12-4.22-.35Z"/>
</svg>
