<?xml version="1.0" standalone="no"?>
<!DOCTYPE svg PUBLIC "-//W3C//DTD SVG 20010904//EN"
 "http://www.w3.org/TR/2001/REC-SVG-20010904/DTD/svg10.dtd">
<svg version="1.0" xmlns="http://www.w3.org/2000/svg"
 width="128.000000pt" height="128.000000pt" viewBox="0 0 128.000000 128.000000"
 preserveAspectRatio="xMidYMid meet">
<metadata>
Created by potrace 1.14, written by Peter Selinger 2001-2017
</metadata>
<g transform="translate(0.000000,128.000000) scale(0.100000,-0.100000)"
fill="#000000" stroke="none">
<path d="M520 1249 c-76 -16 -183 -59 -195 -78 -3 -6 -21 -18 -39 -26 -38 -18
-121 -101 -153 -154 -42 -67 -92 -176 -98 -211 -3 -19 -10 -51 -15 -70 -14
-56 -15 -163 -2 -187 7 -13 10 -23 7 -23 -3 0 0 -10 6 -22 7 -13 14 -33 15
-45 4 -34 59 -132 108 -192 49 -59 140 -138 171 -147 11 -3 38 -14 60 -24 22
-11 65 -26 95 -34 30 -8 69 -19 85 -23 58 -16 233 7 304 40 52 23 146 81 174
106 119 105 198 245 225 396 12 69 3 196 -17 248 -6 15 -8 27 -5 27 4 0 2 6
-3 13 -6 6 -18 36 -27 65 -25 77 -109 174 -214 245 -47 31 -91 57 -98 57 -8 0
-39 12 -71 26 -73 32 -200 38 -313 13z"/>
</g>
</svg>
